<?xml version="1.0" encoding="utf-8"?>
<!-- Generator: Adobe Illustrator 15.1.0, SVG Export Plug-In . SVG Version: 6.00 Build 0)  -->
<!DOCTYPE svg PUBLIC "-//W3C//DTD SVG 1.1//EN" "http://www.w3.org/Graphics/SVG/1.1/DTD/svg11.dtd">
<svg version="1.1" id="Layer_1" xmlns="http://www.w3.org/2000/svg" xmlns:xlink="http://www.w3.org/1999/xlink" x="0px" y="0px"
	 width="8503.94px" height="5825.2px" viewBox="0 0 8503.94 5825.2" enable-background="new 0 0 8503.94 5825.2"
	 xml:space="preserve">
<rect x="-364.455" y="-334" fill="#FFFFFF" width="9440" height="3397.711"/>
<g>
	<polygon fill="#B9D989" points="5931.723,999.292 5888.369,999.292 5868.096,2407.863 5947.025,2407.863 	"/>
	<g>
		<polygon fill="#B9D989" points="5918.156,355.446 5918.156,885.846 5868.096,866.855 5892.656,370.746 		"/>
		<rect x="5905.141" y="756.646" fill="#B9D989" width="13.514" height="232.9"/>
	</g>
	<g>
		<polygon fill="#B9D989" points="6454.537,1312.767 5995.197,1047.567 6036.674,1013.708 6454.037,1283.032 		"/>
		
			<rect x="5892.917" y="1041.766" transform="matrix(0.866 0.5 -0.5 0.866 1329.3672 -2864.2122)" fill="#B9D989" width="232.9" height="13.513"/>
	</g>
	<g>
		<polygon fill="#B9D989" points="5356.244,1303.433 5815.584,1038.233 5824.168,1091.082 5382.244,1317.867 		"/>
		
			<rect x="5691.22" y="1043.271" transform="matrix(-0.866 0.5 -0.5 -0.866 11362.2715 -944.4615)" fill="#B9D989" width="232.9" height="13.513"/>
	</g>
	<ellipse fill="#83A656" cx="5911.896" cy="989.546" rx="17" ry="16.393"/>
</g>
<g>
	<polygon fill="#B9D989" points="4652.832,1500.412 4626.82,1500.412 4614.656,2345.555 4662.014,2345.555 	"/>
	<g>
		<polygon fill="#B9D989" points="4644.691,1114.104 4644.691,1432.344 4614.656,1420.95 4629.392,1123.284 		"/>
		<rect x="4636.883" y="1354.824" fill="#B9D989" width="8.107" height="139.74"/>
	</g>
	<g>
		<polygon fill="#B9D989" points="4966.521,1688.497 4690.917,1529.377 4715.803,1509.062 4966.222,1670.657 		"/>
		
			<rect x="4629.549" y="1525.896" transform="matrix(0.866 0.5 -0.5 0.866 1394.5784 -2144.7354)" fill="#B9D989" width="139.74" height="8.108"/>
	</g>
	<g>
		<polygon fill="#B9D989" points="4307.545,1682.896 4583.148,1523.777 4588.3,1555.486 4323.145,1691.557 		"/>
		
			<rect x="4508.531" y="1526.799" transform="matrix(-0.866 0.5 -0.5 -0.866 9308.8359 567.3931)" fill="#B9D989" width="139.739" height="8.108"/>
	</g>
	<ellipse fill="#83A656" cx="4640.937" cy="1494.564" rx="10.2" ry="9.836"/>
</g>
<g>
	<polygon fill="#B9D989" points="3680.26,1353.52 3648.937,1353.52 3634.289,2371.212 3691.315,2371.212 	"/>
	<g>
		<polygon fill="#B9D989" points="3670.458,888.341 3670.458,1271.555 3634.289,1257.834 3652.033,899.395 		"/>
		<rect x="3661.054" y="1178.208" fill="#B9D989" width="9.764" height="168.27"/>
	</g>
	<g>
		<polygon fill="#B9D989" points="4057.993,1580.005 3726.12,1388.398 3756.088,1363.936 4057.633,1558.522 		"/>
		
			<rect x="3652.223" y="1384.207" transform="matrix(0.866 0.5 -0.5 0.866 1195.1211 -1682.0762)" fill="#B9D989" width="168.271" height="9.764"/>
	</g>
	<g>
		<polygon fill="#B9D989" points="3264.477,1573.262 3596.349,1381.654 3602.552,1419.837 3283.262,1583.69 		"/>
		
			<rect x="3506.497" y="1385.294" transform="matrix(-0.866 0.5 -0.5 -0.866 7395.2983 798.7886)" fill="#B9D989" width="168.271" height="9.763"/>
	</g>
	<ellipse fill="#83A656" cx="3665.936" cy="1346.478" rx="12.282" ry="11.844"/>
</g>
<rect x="-191.277" y="2228.69" fill="#92CD8B" width="9414.285" height="3350"/>
</svg>
