<?xml version="1.0" encoding="utf-8"?>
<!-- Generator: Adobe Illustrator 15.1.0, SVG Export Plug-In . SVG Version: 6.00 Build 0)  -->
<!DOCTYPE svg PUBLIC "-//W3C//DTD SVG 1.1//EN" "http://www.w3.org/Graphics/SVG/1.1/DTD/svg11.dtd">
<svg version="1.1" id="Layer_1" xmlns="http://www.w3.org/2000/svg" xmlns:xlink="http://www.w3.org/1999/xlink" x="0px" y="0px"
	 width="867.396px" height="867.396px" viewBox="0 0 867.396 867.396" enable-background="new 0 0 867.396 867.396"
	 xml:space="preserve">
<path fill="#F7941E" d="M727.975,429.954c0,164.4-131.752,297.671-294.275,297.671c-162.525,0-294.277-133.271-294.277-297.671
	c0-164.399,131.752-297.671,294.277-297.671C596.223,132.283,727.975,265.555,727.975,429.954 M418.872,502.924
	c5.264,73.685,13.685,69.474,15.621,72.633c0.885,1.443,9.353-8.108,18.286-18.905c10.612-12.826,21.883-27.411,21.883-27.411
	s36.842-49.473,47.113-64.211c10.273-14.736,9.729-35.076,9.729-35.076s1.053,5.603-1.053,22.444
	c-2.105,16.843-7.368,35.791-30.525,75.791c-23.158,40-49.475,47.368-50.527,56.841c-1.053,9.475,54.738-10.525,72.377-21.052
	c34.484-12.632,83.412-62.106,87.623-130.279c4.209-68.174-22.105-128.669-22.105-128.669l-17.895-32.632
	c-4.525,8.914-13.651,22.375-22.346,34.64c-8.695,12.265-16.959,23.334-19.76,27.466
	C527.293,334.503,413.609,429.241,418.872,502.924 M296.767,550.293c11.579,23.156,38.947,41.053,54.737,49.475
	c15.789,8.421,54.737-4.211,55.789-12.26c1.053-8.047-29.473-43.53-29.473-50.899c0-7.368-43.158-30.526-37.895-30.526
	c5.263,0,16.842,6.315,38.947,18.814c22.106,12.5,44.211,62.238,39.823,56.975c-4.387-5.264,4.18-39.527-30.349-86.314
	c-34.529-46.788-156.842-20-156.842-20C242.03,471.346,285.188,527.135,296.767,550.293"/>
<rect fill="none" width="867.396" height="867.396"/>
<rect fill="none" width="867.396" height="867.396"/>
<g>
	<polygon fill="#FFFFFF" points="315.333,304 561.195,304 542.973,314.598 	"/>
	<polygon fill="#FFFFFF" points="286.597,326 545.793,326 526.581,336.598 	"/>
	<polygon fill="#FFFFFF" points="273,346.667 528.449,346.667 509.517,357.264 	"/>
	<polygon fill="#FFFFFF" points="187.735,368.667 510.931,368.667 486.977,379.264 	"/>
	<polygon fill="#FFFFFF" points="195.667,393.333 488.862,393.333 467.132,403.931 	"/>
	<polygon fill="#FFFFFF" points="409.765,282.667 569.961,282.667 558.088,293.265 	"/>
	<polygon fill="#FFFFFF" points="151,414.667 486.862,414.667 461.968,425.264 	"/>
	<polygon fill="#FFFFFF" points="222.265,442.667 452.127,442.667 435.09,453.265 	"/>
	<polygon fill="#FFFFFF" points="154.833,473.858 289.696,473.858 279.7,484.456 	"/>
	<polygon fill="#FFFFFF" points="170.862,495.253 318.706,495.253 307.748,505.851 	"/>
	<polygon fill="#FFFFFF" points="183.707,517.25 296.736,517.25 288.358,526.061 	"/>
	<polygon fill="#FFFFFF" points="195.667,536.805 328.867,536.805 318.995,547.402 	"/>
	<polygon fill="#FFFFFF" points="230.135,557.805 363.336,557.805 353.463,568.402 	"/>
	<polygon fill="#FFFFFF" points="262.267,578.859 356.87,578.859 349.858,585.682 	"/>
</g>
</svg>
