<?xml version="1.0" encoding="utf-8"?>
<!-- Generator: Adobe Illustrator 15.1.0, SVG Export Plug-In . SVG Version: 6.00 Build 0)  -->
<!DOCTYPE svg PUBLIC "-//W3C//DTD SVG 1.1//EN" "http://www.w3.org/Graphics/SVG/1.1/DTD/svg11.dtd">
<svg version="1.1" id="Layer_1" xmlns="http://www.w3.org/2000/svg" xmlns:xlink="http://www.w3.org/1999/xlink" x="0px" y="0px"
	 width="8503.941px" height="5825.2px" viewBox="0 0 8503.941 5825.2" enable-background="new 0 0 8503.941 5825.2"
	 xml:space="preserve">
<rect x="-424.718" y="-356.321" fill="#DCECF0" width="9440" height="3397.711"/>
<g>
	<polygon fill="#85A385" points="5418.271,1550.363 5381.419,1550.363 5364.188,2747.649 5431.277,2747.649 	"/>
	<g>
		<polygon fill="#85A385" points="5406.739,1003.094 5406.739,1453.934 5364.188,1437.792 5385.064,1016.099 		"/>
		<rect x="5395.676" y="1344.114" fill="#85A385" width="11.487" height="197.965"/>
	</g>
	<g>
		<polygon fill="#85A385" points="5862.663,1816.816 5472.223,1591.397 5507.478,1562.617 5862.237,1791.542 		"/>
		
			<rect x="5385.247" y="1586.516" transform="matrix(0.866 0.5 -0.5 0.866 1530.9424 -2528.8538)" fill="#85A385" width="197.957" height="11.484"/>
	</g>
	<g>
		<polygon fill="#85A385" points="4929.114,1808.883 5319.552,1583.463 5326.848,1628.385 4951.213,1821.152 		"/>
		
			<rect x="5213.868" y="1587.805" transform="matrix(-0.866 0.5 -0.5 -0.866 10710.6631 317.1019)" fill="#85A385" width="197.957" height="11.485"/>
	</g>
	<ellipse fill="#85A385" cx="5401.417" cy="1542.08" rx="14.45" ry="13.934"/>
</g>
<g>
	<polygon fill="#85A385" points="4312.193,1868.477 4290.083,1868.477 4279.744,2586.848 4319.998,2586.848 	"/>
	<g>
		<polygon fill="#85A385" points="4305.273,1540.115 4305.273,1810.619 4279.744,1800.934 4292.269,1547.918 		"/>
		<rect x="4298.636" y="1744.727" fill="#85A385" width="6.89" height="118.778"/>
	</g>
	<g>
		<polygon fill="#85A385" points="4578.829,2028.349 4344.566,1893.097 4365.718,1875.829 4578.574,2013.185 		"/>
		
			<rect x="4292.362" y="1890.177" transform="matrix(0.866 0.5 -0.5 0.866 1529.8696 -1922.2024)" fill="#85A385" width="118.774" height="6.892"/>
	</g>
	<g>
		<polygon fill="#85A385" points="4018.699,2023.588 4252.961,1888.337 4257.341,1915.29 4031.958,2030.95 		"/>
		
			<rect x="4189.552" y="1890.961" transform="matrix(-0.866 0.5 -0.5 -0.866 8875.8203 1410.4469)" fill="#85A385" width="118.772" height="6.892"/>
	</g>
	<ellipse fill="#85A385" cx="4302.082" cy="1863.506" rx="8.671" ry="8.361"/>
</g>
<g>
	<polygon fill="#85A385" points="3380.517,1724.826 3353.892,1724.826 3341.44,2589.863 3389.913,2589.863 	"/>
	<g>
		<polygon fill="#85A385" points="3372.185,1329.423 3372.185,1655.155 3341.44,1643.492 3356.523,1338.819 		"/>
		<rect x="3364.191" y="1575.81" fill="#85A385" width="8.299" height="143.029"/>
	</g>
	<g>
		<polygon fill="#85A385" points="3701.589,1917.337 3419.498,1754.471 3444.97,1733.679 3701.284,1899.077 		"/>
		
			<rect x="3356.664" y="1750.929" transform="matrix(0.866 0.5 -0.5 0.866 1336.8484 -1478.9651)" fill="#85A385" width="143.024" height="8.3"/>
	</g>
	<g>
		<polygon fill="#85A385" points="3027.101,1911.605 3309.192,1748.739 3314.465,1781.194 3043.068,1920.47 		"/>
		
			<rect x="3232.827" y="1751.881" transform="matrix(-0.866 0.5 -0.5 -0.866 7043.9941 1624.5751)" fill="#85A385" width="143.024" height="8.298"/>
	</g>
	<ellipse fill="#85A385" cx="3368.341" cy="1718.84" rx="10.44" ry="10.068"/>
</g>
<g>
	<polygon fill="#85A385" points="2213.075,2035.044 2197.1,2035.044 2189.629,2554.067 2218.713,2554.067 	"/>
	<g>
		<polygon fill="#85A385" points="2208.076,1797.802 2208.076,1993.241 2189.629,1986.244 2198.678,1803.44 		"/>
		<rect x="2203.28" y="1945.634" fill="#85A385" width="4.979" height="85.817"/>
	</g>
	<g>
		<polygon fill="#85A385" points="2405.718,2150.551 2236.463,2052.831 2251.747,2040.356 2405.535,2139.595 		"/>
		
			<rect x="2198.763" y="2050.706" transform="matrix(0.866 0.5 -0.5 0.866 1326.9574 -845.7693)" fill="#85A385" width="85.814" height="4.98"/>
	</g>
	<g>
		<polygon fill="#85A385" points="2001.025,2147.112 2170.28,2049.392 2173.444,2068.865 2010.606,2152.431 		"/>
		
			<rect x="2124.461" y="2051.277" transform="matrix(-0.866 0.5 -0.5 -0.866 5071.2588 2748.6494)" fill="#85A385" width="85.814" height="4.979"/>
	</g>
	<ellipse fill="#85A385" cx="2205.77" cy="2031.452" rx="6.264" ry="6.041"/>
</g>
<g>
	<polygon fill="#85A385" points="1648.272,2016.454 1632.296,2016.454 1624.826,2535.477 1653.91,2535.477 	"/>
	<g>
		<polygon fill="#85A385" points="1643.272,1779.212 1643.272,1974.651 1624.826,1967.653 1633.875,1784.85 		"/>
		<rect x="1638.476" y="1927.044" fill="#85A385" width="4.979" height="85.817"/>
	</g>
	<g>
		<polygon fill="#85A385" points="1840.915,2131.961 1671.66,2034.241 1686.944,2021.766 1840.732,2121.005 		"/>
		
			<rect x="1633.96" y="2032.116" transform="matrix(0.866 0.5 -0.5 0.866 1241.9751 -565.8506)" fill="#85A385" width="85.815" height="4.98"/>
	</g>
	<g>
		<polygon fill="#85A385" points="1436.222,2128.521 1605.477,2030.802 1608.64,2050.275 1445.802,2133.84 		"/>
		
			<rect x="1559.657" y="2032.687" transform="matrix(-0.866 0.5 -0.5 -0.866 4008.0251 2996.3828)" fill="#85A385" width="85.815" height="4.979"/>
	</g>
	<ellipse fill="#85A385" cx="1640.966" cy="2012.862" rx="6.264" ry="6.041"/>
</g>
<rect x="-455.171" y="2429.691" fill="#85C285" width="9414.284" height="3884.41"/>
</svg>
